<svg xmlns="http://www.w3.org/2000/svg" viewBox="0 0 512 512" role="img" aria-label="SahakarLekha tile logo monochrome">
<!-- SahakarLekha brand master v1.0 - Hind/Inter outlines baked in (no font dependency). navy #153f79 orange #f48525. Regenerate via brand-assets/logo/generator - do not hand-edit paths. -->
<path d="M112.64 0 H399.36 A112.64 112.64 0 0 1 512 112.64 V399.36 A112.64 112.64 0 0 1 399.36 512 H112.64 A112.64 112.64 0 0 1 0 399.36 V112.64 A112.64 112.64 0 0 1 112.64 0Z" fill="#153f79"/><g transform="translate(94.68 414.72) scale(1.5769)"><path d="M90.6 -106.2L90.6 -106.2L141.3 -106.2L141.3 -167.7L96.9 -167.7L96.9 -133.5Q96.9 -117.6 90.6 -106.2M-9 -201.3L213.6 -201.3L213.6 -167.7L183.6 -167.7L183.6 0L141.3 0L141.3 -72.9L96.3 -72.9Q79.2 -72.9 58.8 -75.3L58.8 -75.3L114.9 0L63.9 0L6 -80.7L6 -110.1L27.3 -110.1Q54.9 -110.1 54.9 -133.2L54.9 -133.2L54.9 -167.7L-9 -167.7L-9 -201.3" fill="#ffffff"/></g>
</svg>
