<svg xmlns="http://www.w3.org/2000/svg" viewBox="0 0 641 215" role="img" aria-label="SahakarLekha logo with tagline">
<!-- SahakarLekha brand master v1.0 - Hind/Inter outlines baked in (no font dependency). navy #153f79 orange #f48525. Regenerate via brand-assets/logo/generator - do not hand-edit paths. -->
<g transform="scale(0.2500)"><path d="M112.64 0 H399.36 A112.64 112.64 0 0 1 512 112.64 V399.36 A112.64 112.64 0 0 1 399.36 512 H112.64 A112.64 112.64 0 0 1 0 399.36 V112.64 A112.64 112.64 0 0 1 112.64 0Z" fill="#f48525"/><g transform="translate(94.68 414.72) scale(1.5769)"><path d="M90.6 -106.2L90.6 -106.2L141.3 -106.2L141.3 -167.7L96.9 -167.7L96.9 -133.5Q96.9 -117.6 90.6 -106.2M-9 -201.3L213.6 -201.3L213.6 -167.7L183.6 -167.7L183.6 0L141.3 0L141.3 -72.9L96.3 -72.9Q79.2 -72.9 58.8 -75.3L58.8 -75.3L114.9 0L63.9 0L6 -80.7L6 -110.1L27.3 -110.1Q54.9 -110.1 54.9 -133.2L54.9 -133.2L54.9 -167.7L-9 -167.7L-9 -201.3" fill="#ffffff"/></g></g><g transform="translate(158.00 94.29)"><path d="M28.992 -33.984L28.992 -33.984L45.216 -33.984L45.216 -53.664L31.008 -53.664L31.008 -42.72Q31.008 -37.632 28.992 -33.984M-2.88 -64.416L68.352 -64.416L68.352 -53.664L58.752 -53.664L58.752 0L45.216 0L45.216 -23.328L30.816 -23.328Q25.344 -23.328 18.816 -24.096L18.816 -24.096L36.768 0L20.448 0L1.92 -25.824L1.92 -35.232L8.736 -35.232Q17.568 -35.232 17.568 -42.624L17.568 -42.624L17.568 -53.664L-2.88 -53.664L-2.88 -64.416 M111.84 -53.664L111.84 -38.496L87.36 -38.496Q83.808 -38.496 83.808 -35.904L83.808 -35.904Q83.808 -33.408 86.496 -31.296L86.496 -31.296Q90.144 -32.064 94.368 -32.064L94.368 -32.064Q103.104 -32.064 108.576 -27.936Q114.048 -23.808 114.048 -17.568L114.048 -17.568Q114.048 -13.92 113.184 -12L113.184 -12L99.936 -12Q100.896 -13.824 100.896 -16.8L100.896 -16.8Q100.896 -18.624 98.976 -19.824Q97.056 -21.024 93.888 -21.024L93.888 -21.024Q88.992 -21.024 86.4 -19.2Q83.808 -17.376 83.808 -14.4L83.808 -14.4Q83.808 -6.624 96.864 -6.624L96.864 -6.624Q101.76 -6.624 110.112 -8.448L110.112 -8.448L110.112 2.592Q102.432 4.224 96.288 4.224L96.288 4.224Q83.616 4.224 76.896 -1.392Q70.176 -7.008 70.176 -14.496L70.176 -14.496Q70.176 -22.08 76.512 -26.976L76.512 -26.976Q69.792 -30.912 69.792 -37.536L69.792 -37.536Q69.792 -43.104 73.92 -46.08Q78.048 -49.056 84.576 -49.056L84.576 -49.056L98.4 -49.056L98.4 -53.664L62.592 -53.664L62.592 -64.416L121.248 -64.416L121.248 -53.664L111.84 -53.664 M198.912 -64.416L198.912 -53.664L163.968 -53.664L163.968 -43.2Q168.192 -46.944 174.144 -46.944L174.144 -46.944Q182.688 -46.944 187.92 -41.616Q193.152 -36.288 193.152 -28.032L193.152 -28.032Q193.152 -19.104 187.2 -13.776Q181.248 -8.448 171.936 -8.448L171.936 -8.448Q170.496 -8.448 169.728 -8.544L169.728 -8.544L169.728 -19.392Q170.304 -19.296 171.264 -19.296L171.264 -19.296Q175.2 -19.296 177.36 -21.696Q179.52 -24.096 179.52 -27.84L179.52 -27.84Q179.52 -31.296 177.504 -33.744Q175.488 -36.192 171.648 -36.192L171.648 -36.192Q168.288 -36.192 166.128 -33.744Q163.968 -31.296 163.968 -27.264L163.968 -27.264L163.968 0L150.336 0L150.336 -11.136Q146.208 -7.488 140.16 -7.488L140.16 -7.488Q131.616 -7.488 126.384 -12.816Q121.152 -18.144 121.152 -26.4L121.152 -26.4Q121.152 -35.328 127.104 -40.656Q133.056 -45.984 142.368 -45.984L142.368 -45.984Q143.712 -45.984 144.576 -45.888L144.576 -45.888L144.576 -35.04Q144 -35.136 143.04 -35.136L143.04 -35.136Q139.104 -35.136 136.944 -32.736Q134.784 -30.336 134.784 -26.592L134.784 -26.592Q134.784 -23.136 136.8 -20.688Q138.816 -18.24 142.656 -18.24L142.656 -18.24Q146.016 -18.24 148.176 -20.688Q150.336 -23.136 150.336 -27.168L150.336 -27.168L150.336 -53.664L115.488 -53.664L115.488 -64.416L198.912 -64.416 M202.752 -53.664L193.152 -53.664L193.152 -64.416L225.888 -64.416L225.888 -53.664L216.288 -53.664L216.288 0L202.752 0L202.752 -53.664 M245.376 0L226.368 -24.576L226.368 -35.136L233.664 -35.136Q242.496 -35.136 242.496 -42.432L242.496 -42.432L242.496 -53.664L220.128 -53.664L220.128 -64.416L265.92 -64.416L265.92 -53.664L255.936 -53.664L255.936 -41.664Q255.936 -35.232 252.72 -30.864Q249.504 -26.496 243.456 -25.344L243.456 -25.344Q242.688 -25.152 242.016 -25.152L242.016 -25.152L261.696 0L245.376 0 M284.16 -64.416L362.976 -64.416L362.976 -53.664L353.376 -53.664L353.376 0L339.648 0L339.648 -36.096Q339.072 -36.192 338.016 -36.192L338.016 -36.192Q333.408 -36.192 331.392 -33.888Q329.376 -31.584 329.376 -26.496L329.376 -26.496L329.376 -20.256L315.648 -20.256L315.648 -26.688Q315.648 -34.848 310.08 -34.848L310.08 -34.848Q303.744 -34.848 303.744 -25.344L303.744 -25.344Q303.744 -11.232 318.72 -11.232L318.72 -11.232Q320.64 -11.232 322.848 -11.52L322.848 -11.52L322.848 -0.48Q320.256 -0.096 317.184 -0.096L317.184 -0.096Q304.896 -0.096 297.6 -7.008Q290.304 -13.92 290.304 -25.536L290.304 -25.536Q290.304 -34.944 295.152 -40.512Q300 -46.08 308.64 -46.08L308.64 -46.08Q314.4 -46.08 318 -43.632Q321.6 -41.184 322.464 -37.536L322.464 -37.536Q325.152 -46.848 337.248 -46.848L337.248 -46.848Q338.112 -46.848 339.648 -46.656L339.648 -46.656L339.648 -53.664L284.16 -53.664L284.16 -64.416 M319.104 -76.8L319.104 -76.8L319.104 -88.128Q322.56 -88.8 326.4 -88.8L326.4 -88.8Q332.256 -88.704 336.288 -86.688Q340.32 -84.672 343.392 -79.968L343.392 -79.968L353.952 -63.744L339.456 -63.744L332.544 -73.824Q329.952 -77.76 325.248 -77.76L325.248 -77.76Q322.272 -77.76 319.104 -76.8 M357.216 -64.416L443.712 -64.416L443.712 -53.664L434.112 -53.664L434.112 0L420.48 0L420.48 -12.672Q416.64 -10.176 411.36 -10.176L411.36 -10.176Q403.776 -10.176 398.736 -15.216Q393.696 -20.256 393.696 -28.416L393.696 -28.416Q393.696 -36 399.072 -41.04Q404.448 -46.08 412.416 -46.08L412.416 -46.08Q413.76 -46.08 415.104 -45.888L415.104 -45.888L415.104 -36L414.144 -36Q410.592 -36 408.48 -33.696Q406.368 -31.392 406.368 -27.936L406.368 -27.936Q406.368 -24.384 408.432 -22.272Q410.496 -20.16 413.568 -20.16L413.568 -20.16Q420.48 -20.16 420.48 -27.168L420.48 -27.168L420.48 -53.664L393.024 -53.664L393.024 -41.76Q393.024 -35.232 389.712 -30.912Q386.4 -26.592 380.352 -25.152L380.352 -25.152L379.296 -24.96L398.784 0L382.464 0L363.456 -24.576L363.456 -35.136L370.752 -35.136Q379.584 -35.136 379.584 -42.528L379.584 -42.528L379.584 -53.664L357.216 -53.664L357.216 -64.416 M447.552 -53.664L437.952 -53.664L437.952 -64.416L470.688 -64.416L470.688 -53.664L461.088 -53.664L461.088 0L447.552 0L447.552 -53.664" fill="#153f79"/></g><g transform="translate(158.00 117.60)"><path d="M6.574 0.27L6.574 0.27Q5.063 0.27 3.902 -0.164Q2.742 -0.598 1.998 -1.43Q1.254 -2.262 1.031 -3.445L1.031 -3.445L3.879 -3.984Q4.148 -3.012 4.834 -2.537Q5.52 -2.063 6.633 -2.063L6.633 -2.063Q7.758 -2.063 8.42 -2.514Q9.082 -2.965 9.082 -3.633L9.082 -3.633Q9.082 -4.195 8.648 -4.564Q8.215 -4.934 7.313 -5.133L7.313 -5.133L5.074 -5.613Q3.223 -6.012 2.309 -6.926Q1.395 -7.84 1.395 -9.281L1.395 -9.281Q1.395 -10.5 2.063 -11.391Q2.73 -12.281 3.92 -12.773Q5.109 -13.266 6.68 -13.266L6.68 -13.266Q8.168 -13.266 9.24 -12.844Q10.313 -12.422 10.975 -11.666Q11.637 -10.91 11.895 -9.891L11.895 -9.891L9.176 -9.352Q8.953 -10.043 8.367 -10.518Q7.781 -10.992 6.715 -10.992L6.715 -10.992Q5.742 -10.992 5.092 -10.564Q4.441 -10.137 4.441 -9.469L4.441 -9.469Q4.441 -8.895 4.875 -8.52Q5.309 -8.145 6.305 -7.934L6.305 -7.934L8.531 -7.465Q10.395 -7.066 11.297 -6.188Q12.199 -5.309 12.199 -3.926L12.199 -3.926Q12.199 -2.684 11.484 -1.74Q10.77 -0.797 9.498 -0.264Q8.227 0.27 6.574 0.27 M18.817 0.27L18.817 0.27Q17.575 0.27 16.579 -0.182Q15.583 -0.633 15.008 -1.512Q14.434 -2.391 14.434 -3.68L14.434 -3.68Q14.434 -4.793 14.85 -5.52Q15.266 -6.246 15.975 -6.68Q16.684 -7.113 17.575 -7.336Q18.465 -7.559 19.426 -7.652L19.426 -7.652Q20.563 -7.781 21.278 -7.875Q21.993 -7.969 22.327 -8.18Q22.661 -8.391 22.661 -8.836L22.661 -8.836L22.661 -8.895Q22.661 -9.539 22.403 -9.99Q22.145 -10.441 21.635 -10.682Q21.126 -10.922 20.376 -10.922L20.376 -10.922Q19.614 -10.922 19.057 -10.688Q18.501 -10.453 18.149 -10.078Q17.797 -9.703 17.633 -9.27L17.633 -9.27L14.809 -9.844Q15.196 -11.004 16.005 -11.76Q16.813 -12.516 17.932 -12.891Q19.051 -13.266 20.364 -13.266L20.364 -13.266Q21.29 -13.266 22.233 -13.049Q23.176 -12.832 23.962 -12.316Q24.747 -11.801 25.227 -10.934Q25.708 -10.066 25.708 -8.754L25.708 -8.754L25.708 0L22.79 0L22.79 -1.805L22.672 -1.805Q22.38 -1.254 21.87 -0.779Q21.36 -0.305 20.604 -0.018Q19.848 0.27 18.817 0.27M19.602 -1.992L19.602 -1.992Q20.551 -1.992 21.237 -2.367Q21.922 -2.742 22.303 -3.357Q22.684 -3.973 22.684 -4.699L22.684 -4.699L22.684 -6.246Q22.532 -6.129 22.174 -6.023Q21.817 -5.918 21.378 -5.836Q20.938 -5.754 20.51 -5.695Q20.083 -5.637 19.79 -5.602L19.79 -5.602Q19.11 -5.508 18.559 -5.297Q18.008 -5.086 17.698 -4.705Q17.387 -4.324 17.387 -3.715L17.387 -3.715Q17.387 -3.152 17.674 -2.771Q17.962 -2.391 18.46 -2.191Q18.958 -1.992 19.602 -1.992 M32.349 -7.676L32.349 -7.676L32.349 0L29.302 0L29.302 -17.461L32.302 -17.461L32.302 -9.867L31.986 -9.867Q32.536 -11.566 33.603 -12.416Q34.669 -13.266 36.275 -13.266L36.275 -13.266Q37.622 -13.266 38.636 -12.691Q39.65 -12.117 40.206 -11.016Q40.763 -9.914 40.763 -8.332L40.763 -8.332L40.763 0L37.704 0L37.704 -7.863Q37.704 -9.176 37.025 -9.926Q36.345 -10.676 35.15 -10.676L35.15 -10.676Q34.341 -10.676 33.708 -10.324Q33.075 -9.973 32.712 -9.299Q32.349 -8.625 32.349 -7.676 M48.014 0.27L48.014 0.27Q46.771 0.27 45.775 -0.182Q44.779 -0.633 44.205 -1.512Q43.631 -2.391 43.631 -3.68L43.631 -3.68Q43.631 -4.793 44.047 -5.52Q44.463 -6.246 45.172 -6.68Q45.881 -7.113 46.771 -7.336Q47.662 -7.559 48.623 -7.652L48.623 -7.652Q49.76 -7.781 50.475 -7.875Q51.189 -7.969 51.523 -8.18Q51.857 -8.391 51.857 -8.836L51.857 -8.836L51.857 -8.895Q51.857 -9.539 51.6 -9.99Q51.342 -10.441 50.832 -10.682Q50.322 -10.922 49.572 -10.922L49.572 -10.922Q48.81 -10.922 48.254 -10.688Q47.697 -10.453 47.346 -10.078Q46.994 -9.703 46.83 -9.27L46.83 -9.27L44.006 -9.844Q44.392 -11.004 45.201 -11.76Q46.01 -12.516 47.129 -12.891Q48.248 -13.266 49.56 -13.266L49.56 -13.266Q50.486 -13.266 51.43 -13.049Q52.373 -12.832 53.158 -12.316Q53.943 -11.801 54.424 -10.934Q54.904 -10.066 54.904 -8.754L54.904 -8.754L54.904 0L51.986 0L51.986 -1.805L51.869 -1.805Q51.576 -1.254 51.066 -0.779Q50.557 -0.305 49.801 -0.018Q49.045 0.27 48.014 0.27M48.799 -1.992L48.799 -1.992Q49.748 -1.992 50.434 -2.367Q51.119 -2.742 51.5 -3.357Q51.881 -3.973 51.881 -4.699L51.881 -4.699L51.881 -6.246Q51.728 -6.129 51.371 -6.023Q51.014 -5.918 50.574 -5.836Q50.135 -5.754 49.707 -5.695Q49.279 -5.637 48.986 -5.602L48.986 -5.602Q48.307 -5.508 47.756 -5.297Q47.205 -5.086 46.894 -4.705Q46.584 -4.324 46.584 -3.715L46.584 -3.715Q46.584 -3.152 46.871 -2.771Q47.158 -2.391 47.656 -2.191Q48.154 -1.992 48.799 -1.992 M63.643 -6.645L61.288 -4.125L61.288 -7.816L61.768 -7.816L66.491 -13.102L70.065 -13.102L64.276 -6.645L63.643 -6.645M61.545 0L58.499 0L58.499 -17.461L61.545 -17.461L61.545 0M70.37 0L66.713 0L62.424 -5.965L64.487 -8.121L70.37 0 M76.179 0.27L76.179 0.27Q74.937 0.27 73.941 -0.182Q72.945 -0.633 72.37 -1.512Q71.796 -2.391 71.796 -3.68L71.796 -3.68Q71.796 -4.793 72.212 -5.52Q72.628 -6.246 73.337 -6.68Q74.046 -7.113 74.937 -7.336Q75.827 -7.559 76.788 -7.652L76.788 -7.652Q77.925 -7.781 78.64 -7.875Q79.355 -7.969 79.689 -8.18Q80.023 -8.391 80.023 -8.836L80.023 -8.836L80.023 -8.895Q80.023 -9.539 79.765 -9.99Q79.507 -10.441 78.997 -10.682Q78.488 -10.922 77.738 -10.922L77.738 -10.922Q76.976 -10.922 76.419 -10.688Q75.863 -10.453 75.511 -10.078Q75.159 -9.703 74.995 -9.27L74.995 -9.27L72.171 -9.844Q72.558 -11.004 73.366 -11.76Q74.175 -12.516 75.294 -12.891Q76.413 -13.266 77.726 -13.266L77.726 -13.266Q78.652 -13.266 79.595 -13.049Q80.538 -12.832 81.323 -12.316Q82.109 -11.801 82.589 -10.934Q83.07 -10.066 83.07 -8.754L83.07 -8.754L83.07 0L80.152 0L80.152 -1.805L80.034 -1.805Q79.741 -1.254 79.232 -0.779Q78.722 -0.305 77.966 -0.018Q77.21 0.27 76.179 0.27M76.964 -1.992L76.964 -1.992Q77.913 -1.992 78.599 -2.367Q79.284 -2.742 79.665 -3.357Q80.046 -3.973 80.046 -4.699L80.046 -4.699L80.046 -6.246Q79.894 -6.129 79.536 -6.023Q79.179 -5.918 78.739 -5.836Q78.3 -5.754 77.872 -5.695Q77.445 -5.637 77.152 -5.602L77.152 -5.602Q76.472 -5.508 75.921 -5.297Q75.37 -5.086 75.06 -4.705Q74.749 -4.324 74.749 -3.715L74.749 -3.715Q74.749 -3.152 75.036 -2.771Q75.323 -2.391 75.821 -2.191Q76.32 -1.992 76.964 -1.992 M89.711 0L86.664 0L86.664 -13.102L89.617 -13.102L89.617 -10.91L89.758 -10.91Q90.109 -12.047 90.988 -12.662Q91.867 -13.277 92.992 -13.277L92.992 -13.277Q93.25 -13.277 93.566 -13.254Q93.883 -13.23 94.105 -13.195L94.105 -13.195L94.105 -10.395Q93.918 -10.453 93.496 -10.5Q93.074 -10.547 92.664 -10.547L92.664 -10.547Q91.82 -10.547 91.146 -10.184Q90.473 -9.82 90.092 -9.182Q89.711 -8.543 89.711 -7.711L89.711 -7.711L89.711 0 M96.926 -17.461L99.973 -17.461L99.973 0L96.926 0L96.926 -17.461 M109.357 0.27L109.357 0.27Q107.376 0.27 105.952 -0.563Q104.528 -1.395 103.761 -2.906Q102.993 -4.418 102.993 -6.469L102.993 -6.469Q102.993 -8.496 103.749 -10.02Q104.505 -11.543 105.894 -12.404Q107.282 -13.266 109.157 -13.266L109.157 -13.266Q110.353 -13.266 111.437 -12.879Q112.521 -12.492 113.359 -11.684Q114.196 -10.875 114.671 -9.627Q115.146 -8.379 115.146 -6.656L115.146 -6.656L115.146 -5.695L104.435 -5.695L104.435 -7.77L113.634 -7.77L112.204 -7.16Q112.204 -8.262 111.864 -9.1Q111.525 -9.938 110.851 -10.406Q110.177 -10.875 109.169 -10.875L109.169 -10.875Q108.161 -10.875 107.458 -10.4Q106.755 -9.926 106.386 -9.135Q106.017 -8.344 106.017 -7.371L106.017 -7.371L106.017 -5.941Q106.017 -4.699 106.439 -3.844Q106.86 -2.988 107.622 -2.555Q108.384 -2.121 109.392 -2.121L109.392 -2.121Q110.06 -2.121 110.605 -2.314Q111.15 -2.508 111.548 -2.889Q111.946 -3.27 112.146 -3.82L112.146 -3.82L114.946 -3.246Q114.63 -2.191 113.868 -1.4Q113.107 -0.609 111.964 -0.17Q110.821 0.27 109.357 0.27 M123.263 -6.645L120.908 -4.125L120.908 -7.816L121.388 -7.816L126.111 -13.102L129.685 -13.102L123.896 -6.645L123.263 -6.645M121.166 0L118.119 0L118.119 -17.461L121.166 -17.461L121.166 0M129.99 0L126.334 0L122.045 -5.965L124.107 -8.121L129.99 0 M135.19 -7.676L135.19 -7.676L135.19 0L132.143 0L132.143 -17.461L135.143 -17.461L135.143 -9.867L134.827 -9.867Q135.377 -11.566 136.444 -12.416Q137.51 -13.266 139.116 -13.266L139.116 -13.266Q140.463 -13.266 141.477 -12.691Q142.491 -12.117 143.047 -11.016Q143.604 -9.914 143.604 -8.332L143.604 -8.332L143.604 0L140.545 0L140.545 -7.863Q140.545 -9.176 139.866 -9.926Q139.186 -10.676 137.991 -10.676L137.991 -10.676Q137.182 -10.676 136.549 -10.324Q135.916 -9.973 135.553 -9.299Q135.19 -8.625 135.19 -7.676 M150.855 0.27L150.855 0.27Q149.612 0.27 148.616 -0.182Q147.62 -0.633 147.046 -1.512Q146.472 -2.391 146.472 -3.68L146.472 -3.68Q146.472 -4.793 146.888 -5.52Q147.304 -6.246 148.013 -6.68Q148.722 -7.113 149.612 -7.336Q150.503 -7.559 151.464 -7.652L151.464 -7.652Q152.601 -7.781 153.315 -7.875Q154.03 -7.969 154.364 -8.18Q154.698 -8.391 154.698 -8.836L154.698 -8.836L154.698 -8.895Q154.698 -9.539 154.44 -9.99Q154.183 -10.441 153.673 -10.682Q153.163 -10.922 152.413 -10.922L152.413 -10.922Q151.651 -10.922 151.095 -10.688Q150.538 -10.453 150.187 -10.078Q149.835 -9.703 149.671 -9.27L149.671 -9.27L146.847 -9.844Q147.233 -11.004 148.042 -11.76Q148.851 -12.516 149.97 -12.891Q151.089 -13.266 152.401 -13.266L152.401 -13.266Q153.327 -13.266 154.271 -13.049Q155.214 -12.832 155.999 -12.316Q156.784 -11.801 157.265 -10.934Q157.745 -10.066 157.745 -8.754L157.745 -8.754L157.745 0L154.827 0L154.827 -1.805L154.71 -1.805Q154.417 -1.254 153.907 -0.779Q153.397 -0.305 152.642 -0.018Q151.886 0.27 150.855 0.27M151.64 -1.992L151.64 -1.992Q152.589 -1.992 153.274 -2.367Q153.96 -2.742 154.341 -3.357Q154.722 -3.973 154.722 -4.699L154.722 -4.699L154.722 -6.246Q154.569 -6.129 154.212 -6.023Q153.855 -5.918 153.415 -5.836Q152.976 -5.754 152.548 -5.695Q152.12 -5.637 151.827 -5.602L151.827 -5.602Q151.147 -5.508 150.597 -5.297Q150.046 -5.086 149.735 -4.705Q149.425 -4.324 149.425 -3.715L149.425 -3.715Q149.425 -3.152 149.712 -2.771Q149.999 -2.391 150.497 -2.191Q150.995 -1.992 151.64 -1.992 M163.543 0.199L163.543 0.199Q162.757 0.199 162.213 -0.34Q161.668 -0.879 161.668 -1.676L161.668 -1.676Q161.668 -2.461 162.213 -3Q162.757 -3.539 163.543 -3.539L163.543 -3.539Q164.34 -3.539 164.884 -3Q165.429 -2.461 165.429 -1.676L165.429 -1.676Q165.429 -0.879 164.884 -0.34Q164.34 0.199 163.543 0.199 M175.035 0.27L175.035 0.27Q173.125 0.27 171.719 -0.58Q170.313 -1.43 169.545 -2.947Q168.778 -4.465 168.778 -6.48L168.778 -6.48Q168.778 -8.52 169.545 -10.049Q170.313 -11.578 171.719 -12.422Q173.125 -13.266 175.035 -13.266L175.035 -13.266Q176.125 -13.266 177.063 -12.984Q178 -12.703 178.739 -12.17Q179.477 -11.637 179.975 -10.875Q180.473 -10.113 180.684 -9.152L180.684 -9.152L177.836 -8.555Q177.707 -9.059 177.467 -9.475Q177.227 -9.891 176.875 -10.184Q176.524 -10.477 176.067 -10.635Q175.61 -10.793 175.059 -10.793L175.059 -10.793Q173.992 -10.793 173.289 -10.225Q172.586 -9.656 172.235 -8.689Q171.883 -7.723 171.883 -6.492L171.883 -6.492Q171.883 -5.285 172.235 -4.313Q172.586 -3.34 173.289 -2.771Q173.992 -2.203 175.059 -2.203L175.059 -2.203Q175.621 -2.203 176.084 -2.367Q176.547 -2.531 176.905 -2.836Q177.262 -3.141 177.508 -3.574Q177.754 -4.008 177.871 -4.535L177.871 -4.535L180.719 -3.938Q180.508 -2.953 180.01 -2.18Q179.512 -1.406 178.768 -0.861Q178.024 -0.316 177.08 -0.023Q176.137 0.27 175.035 0.27 M189.376 0.27L189.376 0.27Q187.466 0.27 186.06 -0.58Q184.653 -1.43 183.886 -2.947Q183.118 -4.465 183.118 -6.48L183.118 -6.48Q183.118 -8.52 183.886 -10.049Q184.653 -11.578 186.06 -12.422Q187.466 -13.266 189.376 -13.266L189.376 -13.266Q191.298 -13.266 192.704 -12.422Q194.11 -11.578 194.878 -10.049Q195.645 -8.52 195.645 -6.48L195.645 -6.48Q195.645 -4.465 194.878 -2.947Q194.11 -1.43 192.704 -0.58Q191.298 0.27 189.376 0.27M189.376 -2.203L189.376 -2.203Q190.442 -2.203 191.151 -2.777Q191.86 -3.352 192.206 -4.324Q192.552 -5.297 192.552 -6.492L192.552 -6.492Q192.552 -7.699 192.206 -8.672Q191.86 -9.645 191.151 -10.219Q190.442 -10.793 189.376 -10.793L189.376 -10.793Q188.31 -10.793 187.612 -10.219Q186.915 -9.645 186.569 -8.678Q186.224 -7.711 186.224 -6.492L186.224 -6.492Q186.224 -5.297 186.569 -4.324Q186.915 -3.352 187.612 -2.777Q188.31 -2.203 189.376 -2.203 M201.712 0L198.666 0L198.666 -13.102L201.525 -13.102L201.642 -9.949L201.42 -9.949Q201.701 -11.121 202.293 -11.859Q202.884 -12.598 203.675 -12.955Q204.466 -13.313 205.334 -13.313L205.334 -13.313Q206.752 -13.313 207.625 -12.422Q208.498 -11.531 208.861 -9.797L208.861 -9.797L208.498 -9.797Q208.767 -10.969 209.418 -11.748Q210.068 -12.527 210.964 -12.92Q211.861 -13.313 212.88 -13.313L212.88 -13.313Q214.064 -13.313 215.002 -12.797Q215.939 -12.281 216.49 -11.291Q217.041 -10.301 217.041 -8.836L217.041 -8.836L217.041 0L213.994 0L213.994 -8.367Q213.994 -9.586 213.326 -10.148Q212.658 -10.711 211.72 -10.711L211.72 -10.711Q210.994 -10.711 210.455 -10.395Q209.916 -10.078 209.629 -9.521Q209.341 -8.965 209.341 -8.227L209.341 -8.227L209.341 0L206.365 0L206.365 -8.508Q206.365 -9.504 205.744 -10.107Q205.123 -10.711 204.15 -10.711L204.15 -10.711Q203.482 -10.711 202.925 -10.406Q202.369 -10.102 202.041 -9.504Q201.712 -8.906 201.712 -8.027L201.712 -8.027L201.712 0" fill="#f48525"/></g><g transform="translate(158.00 199.21)"><path d="M9.52 -11.764L9.52 -11.764L15.912 -11.764L15.912 -19.21L10.302 -19.21L10.302 -14.96Q10.302 -13.056 9.52 -11.764M-0.918 -22.44L23.494 -22.44L23.494 -19.21L19.89 -19.21L19.89 0L15.912 0L15.912 -8.534L10.574 -8.534Q7.922 -8.534 5.78 -8.84L5.78 -8.84L12.07 0L7.276 0L0.782 -9.316L0.782 -12.172L3.128 -12.172Q6.324 -12.172 6.324 -15.028L6.324 -15.028L6.324 -19.21L-0.918 -19.21L-0.918 -22.44 M38.454 -19.21L38.454 -13.872L29.954 -13.872Q28.458 -13.872 28.458 -12.716Q28.458 -11.56 29.614 -10.744L29.614 -10.744Q31.076 -11.084 32.64 -11.084L32.64 -11.084Q35.598 -11.084 37.383 -9.656Q39.168 -8.228 39.168 -6.154L39.168 -6.154Q39.168 -4.93 38.828 -4.216L38.828 -4.216L34.918 -4.216Q35.326 -4.862 35.326 -5.95L35.326 -5.95Q35.326 -6.732 34.595 -7.276Q33.864 -7.82 32.538 -7.82L32.538 -7.82Q30.6 -7.82 29.546 -7.038Q28.492 -6.256 28.492 -5.066L28.492 -5.066Q28.492 -3.638 29.733 -2.771Q30.974 -1.904 33.626 -1.904L33.626 -1.904Q35.428 -1.904 38.148 -2.55L38.148 -2.55L38.148 0.748Q35.496 1.326 33.422 1.326L33.422 1.326Q29.104 1.326 26.809 -0.595Q24.514 -2.516 24.514 -5.1L24.514 -5.1Q24.514 -7.718 26.724 -9.418L26.724 -9.418Q24.378 -10.778 24.378 -13.192L24.378 -13.192Q24.378 -15.028 25.721 -16.014Q27.064 -17 29.206 -17L29.206 -17L34.51 -17L34.51 -19.21L21.658 -19.21L21.658 -22.44L41.956 -22.44L41.956 -19.21L38.454 -19.21 M68.986 -22.44L68.986 -19.21L56.542 -19.21L56.542 -15.028Q58.106 -16.49 60.282 -16.49L60.282 -16.49Q63.24 -16.49 65.042 -14.688Q66.844 -12.886 66.844 -10.03L66.844 -10.03Q66.844 -6.936 64.787 -5.1Q62.73 -3.264 59.602 -3.264L59.602 -3.264Q59.058 -3.264 58.82 -3.298L58.82 -3.298L58.82 -6.528Q59.024 -6.494 59.432 -6.494L59.432 -6.494Q60.962 -6.494 61.897 -7.463Q62.832 -8.432 62.832 -9.962L62.832 -9.962Q62.832 -11.39 61.965 -12.342Q61.098 -13.294 59.636 -13.294L59.636 -13.294Q58.31 -13.294 57.426 -12.359Q56.542 -11.424 56.542 -9.962L56.542 -9.962L56.542 0L52.53 0L52.53 -4.352Q51 -2.924 48.79 -2.924L48.79 -2.924Q45.866 -2.924 44.047 -4.726Q42.228 -6.528 42.228 -9.384L42.228 -9.384Q42.228 -12.478 44.285 -14.314Q46.342 -16.15 49.47 -16.15L49.47 -16.15Q49.98 -16.15 50.252 -16.116L50.252 -16.116L50.252 -12.886Q50.048 -12.92 49.64 -12.92L49.64 -12.92Q48.11 -12.92 47.175 -11.951Q46.24 -10.982 46.24 -9.452L46.24 -9.452Q46.24 -8.024 47.107 -7.072Q47.974 -6.12 49.47 -6.12L49.47 -6.12Q50.762 -6.12 51.646 -7.055Q52.53 -7.99 52.53 -9.452L52.53 -9.452L52.53 -19.21L40.12 -19.21L40.12 -22.44L68.986 -22.44 M70.754 -19.21L67.15 -19.21L67.15 -22.44L78.336 -22.44L78.336 -19.21L74.732 -19.21L74.732 0L70.754 0L70.754 -19.21 M85.476 0L78.574 -9.01L78.574 -12.172L81.022 -12.172Q84.524 -12.172 84.524 -14.994L84.524 -14.994L84.524 -19.21L76.5 -19.21L76.5 -22.44L91.97 -22.44L91.97 -19.21L88.502 -19.21L88.502 -14.756Q88.502 -12.41 87.227 -10.931Q85.952 -9.452 83.674 -9.18L83.674 -9.18Q83.47 -9.112 83.198 -9.112L83.198 -9.112L90.27 0L85.476 0 M97.682 -24.956L97.682 -22.44L101.32 -22.44L101.32 -19.21L97.716 -19.21L97.716 0L93.738 0L93.738 -19.21L90.134 -19.21L90.134 -22.44L93.704 -22.44L93.704 -24.786Q93.704 -26.18 92.939 -26.945Q92.174 -27.71 90.882 -27.71L90.882 -27.71Q88.196 -27.71 88.196 -24.786L88.196 -24.786L88.196 -24.038L84.184 -24.038L84.184 -24.922Q84.184 -27.982 86.088 -29.546Q87.992 -31.11 90.882 -31.11L90.882 -31.11Q93.806 -31.11 95.744 -29.563Q97.682 -28.016 97.682 -24.956L97.682 -24.956 M118.354 -11.764L118.354 -11.764L124.746 -11.764L124.746 -19.21L119.136 -19.21L119.136 -14.96Q119.136 -13.056 118.354 -11.764M107.916 -22.44L132.328 -22.44L132.328 -19.21L128.724 -19.21L128.724 0L124.746 0L124.746 -8.534L119.408 -8.534Q116.756 -8.534 114.614 -8.84L114.614 -8.84L120.904 0L116.11 0L109.616 -9.316L109.616 -12.172L111.962 -12.172Q115.158 -12.172 115.158 -15.028L115.158 -15.028L115.158 -19.21L107.916 -19.21L107.916 -22.44 M141.304 -31.212L141.304 -31.212Q148.444 -31.212 157.216 -28.322L157.216 -28.322L157.216 -24.718Q148.75 -27.812 141.406 -27.812L141.406 -27.812Q139.774 -27.812 138.924 -27.013Q138.074 -26.214 138.074 -24.786L138.074 -24.786L138.074 -22.44L141.678 -22.44L141.678 -19.21L138.074 -19.21L138.074 0L134.096 0L134.096 -19.21L130.492 -19.21L130.492 -22.44L134.096 -22.44L134.096 -24.82Q134.096 -27.676 136.017 -29.444Q137.938 -31.212 141.304 -31.212 M143.922 -19.21L139.842 -19.21L139.842 -22.44L161.398 -22.44L161.398 -19.21L157.794 -19.21L157.794 0L153.884 0L153.884 -9.112L147.866 -9.112L147.866 -4.794L144.466 -4.794L143.378 -7.208Q142.426 -9.35 142.426 -10.302L142.426 -10.302Q142.426 -11.764 143.922 -12.138L143.922 -12.138L143.922 -19.21M153.884 -12.342L153.884 -19.21L147.866 -19.21L147.866 -12.342L153.884 -12.342 M170.442 -31.212L170.442 -31.212Q178.636 -31.212 188.054 -28.322L188.054 -28.322L188.054 -24.718Q179.044 -27.812 170.578 -27.812L170.578 -27.812Q168.878 -27.812 168.011 -27.013Q167.144 -26.214 167.144 -24.752L167.144 -24.752L167.144 -22.44L170.748 -22.44L170.748 -19.21L167.144 -19.21L167.144 0L163.166 0L163.166 -19.21L159.562 -19.21L159.562 -22.44L163.166 -22.44L163.166 -24.786Q163.166 -27.676 165.087 -29.444Q167.008 -31.212 170.442 -31.212 M168.912 -22.44L191.148 -22.44L191.148 -19.21L187.544 -19.21L187.544 0L183.566 0L183.566 -12.546L180.846 -12.546Q175.644 -12.546 175.644 -8.024L175.644 -8.024Q175.644 -5.848 176.664 -4.624Q177.684 -3.4 179.724 -3.4L179.724 -3.4Q180.166 -3.4 180.37 -3.434L180.37 -3.434L180.37 -0.102Q179.622 -0.034 179.146 -0.034L179.146 -0.034Q175.644 -0.034 173.638 -2.261Q171.632 -4.488 171.632 -8.058L171.632 -8.058Q171.632 -11.594 173.927 -13.719Q176.222 -15.844 180.642 -15.844L180.642 -15.844L183.566 -15.844L183.566 -19.21L168.912 -19.21L168.912 -22.44 M199.818 -3.842L199.818 -3.842Q196.52 -3.842 194.157 -6.171Q191.794 -8.5 191.284 -12.648L191.284 -12.648Q196.69 -13.498 196.69 -16.388L196.69 -16.388Q196.69 -18.122 195.67 -19.21L195.67 -19.21L189.312 -19.21L189.312 -22.44L212.602 -22.44L212.602 -19.21L208.998 -19.21L208.998 0L205.02 0L205.02 -6.086Q204.34 -5.066 202.946 -4.454Q201.552 -3.842 199.818 -3.842M200.43 -7.344L200.43 -7.344Q202.538 -7.344 203.779 -8.534Q205.02 -9.724 205.02 -11.968L205.02 -11.968L205.02 -19.21L199.852 -19.21Q200.634 -18.054 200.634 -16.218L200.634 -16.218Q200.634 -12.07 195.942 -10.574L195.942 -10.574Q196.35 -9.112 197.523 -8.228Q198.696 -7.344 200.43 -7.344 M219.844 -25.432L219.844 -25.432Q218.824 -25.432 218.127 -26.129Q217.43 -26.826 217.43 -27.846Q217.43 -28.866 218.127 -29.563Q218.824 -30.26 219.844 -30.26L219.844 -30.26Q220.898 -30.26 221.595 -29.563Q222.292 -28.866 222.292 -27.846Q222.292 -26.826 221.595 -26.129Q220.898 -25.432 219.844 -25.432M214.812 -27.88L214.812 -27.88L218.348 -22.44L221.952 -22.44L221.952 -19.21L218.348 -19.21L218.348 0L214.37 0L214.37 -19.21L210.766 -19.21L210.766 -22.44L214.064 -22.44L211.582 -26.112Q210.528 -27.676 208.794 -27.676L208.794 -27.676Q207.876 -27.676 206.822 -27.37L206.822 -27.37L206.822 -30.736Q208.25 -30.974 209.1 -30.974L209.1 -30.974Q212.806 -30.94 214.812 -27.88 M257.414 -22.44L257.414 -19.21L244.97 -19.21L244.97 -15.028Q246.534 -16.49 248.71 -16.49L248.71 -16.49Q251.668 -16.49 253.47 -14.688Q255.272 -12.886 255.272 -10.03L255.272 -10.03Q255.272 -6.936 253.215 -5.1Q251.158 -3.264 248.03 -3.264L248.03 -3.264Q247.486 -3.264 247.248 -3.298L247.248 -3.298L247.248 -6.528Q247.452 -6.494 247.86 -6.494L247.86 -6.494Q249.39 -6.494 250.325 -7.463Q251.26 -8.432 251.26 -9.962L251.26 -9.962Q251.26 -11.39 250.393 -12.342Q249.526 -13.294 248.064 -13.294L248.064 -13.294Q246.738 -13.294 245.854 -12.359Q244.97 -11.424 244.97 -9.962L244.97 -9.962L244.97 0L240.958 0L240.958 -4.352Q239.428 -2.924 237.218 -2.924L237.218 -2.924Q234.294 -2.924 232.475 -4.726Q230.656 -6.528 230.656 -9.384L230.656 -9.384Q230.656 -12.478 232.713 -14.314Q234.77 -16.15 237.898 -16.15L237.898 -16.15Q238.408 -16.15 238.68 -16.116L238.68 -16.116L238.68 -12.886Q238.476 -12.92 238.068 -12.92L238.068 -12.92Q236.538 -12.92 235.603 -11.951Q234.668 -10.982 234.668 -9.452L234.668 -9.452Q234.668 -8.024 235.535 -7.072Q236.402 -6.12 237.898 -6.12L237.898 -6.12Q239.19 -6.12 240.074 -7.055Q240.958 -7.99 240.958 -9.452L240.958 -9.452L240.958 -19.21L228.548 -19.21L228.548 -22.44L257.414 -22.44 M259.182 -19.21L255.578 -19.21L255.578 -22.44L266.764 -22.44L266.764 -19.21L263.16 -19.21L263.16 0L259.182 0L259.182 -19.21 M288.116 -22.44L298.52 -22.44L298.52 -19.21L294.916 -19.21L294.916 0L290.904 0L290.904 -8.262L286.858 -8.262L286.858 -7.82Q286.858 -5.168 285.039 -3.519Q283.22 -1.87 279.752 -1.87L279.752 -1.87Q277.338 -1.87 275.298 -2.652L275.298 -2.652L275.298 -6.358Q277.508 -5.236 279.582 -5.236L279.582 -5.236Q281.044 -5.236 282.03 -5.984Q283.016 -6.732 283.016 -8.364L283.016 -8.364Q283.016 -11.016 279.378 -11.016L279.378 -11.016L278.086 -11.016L278.086 -14.416L279.14 -14.416Q282.268 -14.416 282.268 -16.83L282.268 -16.83Q282.268 -19.142 279.582 -19.142L279.582 -19.142Q277.814 -19.142 276.114 -18.326L276.114 -18.326L276.114 -21.93Q277.78 -22.576 279.82 -22.576L279.82 -22.576Q282.914 -22.576 284.597 -21.165Q286.28 -19.754 286.28 -17.306L286.28 -17.306Q286.28 -15.538 285.379 -14.348Q284.478 -13.158 282.88 -12.716L282.88 -12.716Q284.342 -12.512 285.464 -11.526L285.464 -11.526L290.904 -11.526L290.904 -19.21L288.116 -19.21L288.116 -22.44 M310.216 -12.852L310.216 -12.852L310.216 -19.21L303.756 -19.21L303.756 -12.614Q303.756 -10.744 304.487 -9.911Q305.218 -9.078 306.68 -9.078L306.68 -9.078Q308.21 -9.078 309.213 -10.081Q310.216 -11.084 310.216 -12.852M296.684 -22.44L317.832 -22.44L317.832 -19.21L314.228 -19.21L314.228 0L310.216 0L310.216 -7.514Q308.652 -5.882 306.034 -5.882L306.034 -5.882Q299.744 -5.882 299.744 -12.75L299.744 -12.75L299.744 -19.21L296.684 -19.21L296.684 -22.44 M315.996 -19.21L315.996 -22.44L335.308 -22.44L335.308 -19.21L331.704 -19.21L331.704 0L327.692 0L327.692 -10.914L322.796 -10.914Q322.184 -10.914 321.912 -10.591Q321.64 -10.268 321.64 -9.452L321.64 -9.452Q321.64 -8.466 321.98 -7.038L321.98 -7.038L318.784 -7.038Q317.696 -8.976 317.696 -11.152L317.696 -11.152Q317.696 -12.512 318.563 -13.311Q319.43 -14.11 321.13 -14.11L321.13 -14.11L327.692 -14.11L327.692 -19.21L315.996 -19.21 M337.076 -19.21L333.472 -19.21L333.472 -22.44L344.658 -22.44L344.658 -19.21L341.054 -19.21L341.054 0L337.076 0L337.076 -19.21 M361.692 -11.764L361.692 -11.764L368.084 -11.764L368.084 -19.21L362.474 -19.21L362.474 -14.96Q362.474 -13.056 361.692 -11.764M351.254 -22.44L375.666 -22.44L375.666 -19.21L372.062 -19.21L372.062 0L368.084 0L368.084 -8.534L362.746 -8.534Q360.094 -8.534 357.952 -8.84L357.952 -8.84L364.242 0L359.448 0L352.954 -9.316L352.954 -12.172L355.3 -12.172Q358.496 -12.172 358.496 -15.028L358.496 -15.028L358.496 -19.21L351.254 -19.21L351.254 -22.44 M377.434 -19.21L373.83 -19.21L373.83 -22.44L385.016 -22.44L385.016 -19.21L381.412 -19.21L381.412 0L377.434 0L377.434 -19.21M379.304 -24.99L379.304 -24.99Q376.074 -24.99 374.153 -26.52Q372.232 -28.05 372.232 -31.008L372.232 -31.008L376.108 -31.008Q376.108 -29.614 376.924 -28.764Q377.74 -27.914 379.304 -27.914L379.304 -27.914Q380.834 -27.914 381.633 -28.764Q382.432 -29.614 382.432 -31.008L382.432 -31.008L386.308 -31.008Q386.308 -28.22 384.302 -26.605Q382.296 -24.99 379.304 -24.99 M415.514 -19.21L400.724 -19.21L400.724 -15.3Q402.288 -16.796 404.77 -16.796L404.77 -16.796Q407.898 -16.796 409.768 -14.552L409.768 -14.552Q411.91 -15.912 414.97 -15.946L414.97 -15.946L415.514 -15.946L415.514 -19.21M396.712 -19.21L390.252 -19.21L390.252 -12.614Q390.252 -10.744 390.983 -9.928Q391.714 -9.112 393.176 -9.112L393.176 -9.112Q394.706 -9.112 395.709 -10.098Q396.712 -11.084 396.712 -12.852L396.712 -12.852L396.712 -19.21M422.926 -19.21L419.458 -19.21L419.458 -12.546Q418.54 -12.75 416.568 -12.75L416.568 -12.75Q413.644 -12.75 412.012 -11.56Q410.38 -10.37 410.38 -8.228L410.38 -8.228Q410.38 -6.154 411.91 -5.015Q413.44 -3.876 415.956 -3.876L415.956 -3.876Q417.248 -3.876 418.642 -4.284Q420.036 -4.692 420.886 -5.236L420.886 -5.236L420.886 -1.632Q418.71 -0.476 415.684 -0.476L415.684 -0.476Q411.366 -0.476 408.85 -2.567Q406.334 -4.658 406.334 -8.364L406.334 -8.364Q406.334 -10.234 407.184 -11.866L407.184 -11.866Q406.13 -13.6 404.124 -13.6L404.124 -13.6Q402.662 -13.6 401.693 -12.682Q400.724 -11.764 400.724 -10.234L400.724 -10.234L400.724 0L396.712 0L396.712 -7.514Q395.114 -5.916 392.53 -5.916L392.53 -5.916Q386.24 -5.916 386.24 -12.716L386.24 -12.716L386.24 -19.21L383.18 -19.21L383.18 -22.44L422.926 -22.44L422.926 -19.21 M421.09 -22.44L443.054 -22.44L443.054 -19.21L439.45 -19.21L439.45 0L435.438 0L435.438 -4.896Q433.534 -2.992 430.44 -2.992L430.44 -2.992Q427.482 -2.992 425.425 -4.811Q423.368 -6.63 423.368 -9.792L423.368 -9.792Q423.368 -12.784 425.374 -14.773Q427.38 -16.762 430.61 -16.762L430.61 -16.762Q431.902 -16.762 432.922 -16.49L432.922 -16.49L432.922 -13.022Q431.766 -13.328 430.916 -13.328L430.916 -13.328Q429.386 -13.328 428.383 -12.393Q427.38 -11.458 427.38 -9.894L427.38 -9.894Q427.38 -8.16 428.4 -7.174Q429.42 -6.188 431.154 -6.188Q432.888 -6.188 434.163 -7.361Q435.438 -8.534 435.438 -10.166L435.438 -10.166L435.438 -19.21L421.09 -19.21L421.09 -22.44 M427.89 -27.37L427.89 -27.37L427.89 -30.736Q429.318 -30.974 430.202 -30.974L430.202 -30.974Q433.908 -30.94 435.88 -27.88L435.88 -27.88L439.586 -22.202L435.302 -22.202L432.65 -26.112Q431.664 -27.676 429.896 -27.676L429.896 -27.676Q428.944 -27.676 427.89 -27.37 M451.724 -3.842L451.724 -3.842Q448.426 -3.842 446.063 -6.171Q443.7 -8.5 443.19 -12.648L443.19 -12.648Q448.596 -13.498 448.596 -16.388L448.596 -16.388Q448.596 -18.122 447.576 -19.21L447.576 -19.21L441.218 -19.21L441.218 -22.44L464.508 -22.44L464.508 -19.21L460.904 -19.21L460.904 0L456.926 0L456.926 -6.086Q456.246 -5.066 454.852 -4.454Q453.458 -3.842 451.724 -3.842M452.336 -7.344L452.336 -7.344Q454.444 -7.344 455.685 -8.534Q456.926 -9.724 456.926 -11.968L456.926 -11.968L456.926 -19.21L451.758 -19.21Q452.54 -18.054 452.54 -16.218L452.54 -16.218Q452.54 -12.07 447.848 -10.574L447.848 -10.574Q448.256 -9.112 449.429 -8.228Q450.602 -7.344 452.336 -7.344 M471.648 0L464.746 -9.01L464.746 -12.172L467.194 -12.172Q470.696 -12.172 470.696 -14.994L470.696 -14.994L470.696 -19.21L462.672 -19.21L462.672 -22.44L478.142 -22.44L478.142 -19.21L474.674 -19.21L474.674 -14.756Q474.674 -12.41 473.399 -10.931Q472.124 -9.452 469.846 -9.18L469.846 -9.18Q469.642 -9.112 469.37 -9.112L469.37 -9.112L476.442 0L471.648 0" fill="#122d54"/></g>
</svg>
