<svg xmlns="http://www.w3.org/2000/svg" viewBox="0 0 632 128" role="img" aria-label="SahakarLekha logo clean reversed">
<!-- SahakarLekha brand master v1.0 - Hind/Inter outlines baked in (no font dependency). navy #153f79 orange #f48525. Regenerate via brand-assets/logo/generator - do not hand-edit paths. -->
<g transform="scale(0.2500)"><path d="M112.64 0 H399.36 A112.64 112.64 0 0 1 512 112.64 V399.36 A112.64 112.64 0 0 1 399.36 512 H112.64 A112.64 112.64 0 0 1 0 399.36 V112.64 A112.64 112.64 0 0 1 112.64 0Z" fill="#f48525"/><g transform="translate(94.68 414.72) scale(1.5769)"><path d="M90.6 -106.2L90.6 -106.2L141.3 -106.2L141.3 -167.7L96.9 -167.7L96.9 -133.5Q96.9 -117.6 90.6 -106.2M-9 -201.3L213.6 -201.3L213.6 -167.7L183.6 -167.7L183.6 0L141.3 0L141.3 -72.9L96.3 -72.9Q79.2 -72.9 58.8 -75.3L58.8 -75.3L114.9 0L63.9 0L6 -80.7L6 -110.1L27.3 -110.1Q54.9 -110.1 54.9 -133.2L54.9 -133.2L54.9 -167.7L-9 -167.7L-9 -201.3" fill="#ffffff"/></g></g><g transform="translate(158.00 106.29)"><path d="M28.992 -33.984L28.992 -33.984L45.216 -33.984L45.216 -53.664L31.008 -53.664L31.008 -42.72Q31.008 -37.632 28.992 -33.984M-2.88 -64.416L68.352 -64.416L68.352 -53.664L58.752 -53.664L58.752 0L45.216 0L45.216 -23.328L30.816 -23.328Q25.344 -23.328 18.816 -24.096L18.816 -24.096L36.768 0L20.448 0L1.92 -25.824L1.92 -35.232L8.736 -35.232Q17.568 -35.232 17.568 -42.624L17.568 -42.624L17.568 -53.664L-2.88 -53.664L-2.88 -64.416 M111.84 -53.664L111.84 -38.496L87.36 -38.496Q83.808 -38.496 83.808 -35.904L83.808 -35.904Q83.808 -33.408 86.496 -31.296L86.496 -31.296Q90.144 -32.064 94.368 -32.064L94.368 -32.064Q103.104 -32.064 108.576 -27.936Q114.048 -23.808 114.048 -17.568L114.048 -17.568Q114.048 -13.92 113.184 -12L113.184 -12L99.936 -12Q100.896 -13.824 100.896 -16.8L100.896 -16.8Q100.896 -18.624 98.976 -19.824Q97.056 -21.024 93.888 -21.024L93.888 -21.024Q88.992 -21.024 86.4 -19.2Q83.808 -17.376 83.808 -14.4L83.808 -14.4Q83.808 -6.624 96.864 -6.624L96.864 -6.624Q101.76 -6.624 110.112 -8.448L110.112 -8.448L110.112 2.592Q102.432 4.224 96.288 4.224L96.288 4.224Q83.616 4.224 76.896 -1.392Q70.176 -7.008 70.176 -14.496L70.176 -14.496Q70.176 -22.08 76.512 -26.976L76.512 -26.976Q69.792 -30.912 69.792 -37.536L69.792 -37.536Q69.792 -43.104 73.92 -46.08Q78.048 -49.056 84.576 -49.056L84.576 -49.056L98.4 -49.056L98.4 -53.664L62.592 -53.664L62.592 -64.416L121.248 -64.416L121.248 -53.664L111.84 -53.664 M198.912 -64.416L198.912 -53.664L163.968 -53.664L163.968 -43.2Q168.192 -46.944 174.144 -46.944L174.144 -46.944Q182.688 -46.944 187.92 -41.616Q193.152 -36.288 193.152 -28.032L193.152 -28.032Q193.152 -19.104 187.2 -13.776Q181.248 -8.448 171.936 -8.448L171.936 -8.448Q170.496 -8.448 169.728 -8.544L169.728 -8.544L169.728 -19.392Q170.304 -19.296 171.264 -19.296L171.264 -19.296Q175.2 -19.296 177.36 -21.696Q179.52 -24.096 179.52 -27.84L179.52 -27.84Q179.52 -31.296 177.504 -33.744Q175.488 -36.192 171.648 -36.192L171.648 -36.192Q168.288 -36.192 166.128 -33.744Q163.968 -31.296 163.968 -27.264L163.968 -27.264L163.968 0L150.336 0L150.336 -11.136Q146.208 -7.488 140.16 -7.488L140.16 -7.488Q131.616 -7.488 126.384 -12.816Q121.152 -18.144 121.152 -26.4L121.152 -26.4Q121.152 -35.328 127.104 -40.656Q133.056 -45.984 142.368 -45.984L142.368 -45.984Q143.712 -45.984 144.576 -45.888L144.576 -45.888L144.576 -35.04Q144 -35.136 143.04 -35.136L143.04 -35.136Q139.104 -35.136 136.944 -32.736Q134.784 -30.336 134.784 -26.592L134.784 -26.592Q134.784 -23.136 136.8 -20.688Q138.816 -18.24 142.656 -18.24L142.656 -18.24Q146.016 -18.24 148.176 -20.688Q150.336 -23.136 150.336 -27.168L150.336 -27.168L150.336 -53.664L115.488 -53.664L115.488 -64.416L198.912 -64.416 M202.752 -53.664L193.152 -53.664L193.152 -64.416L225.888 -64.416L225.888 -53.664L216.288 -53.664L216.288 0L202.752 0L202.752 -53.664 M245.376 0L226.368 -24.576L226.368 -35.136L233.664 -35.136Q242.496 -35.136 242.496 -42.432L242.496 -42.432L242.496 -53.664L220.128 -53.664L220.128 -64.416L265.92 -64.416L265.92 -53.664L255.936 -53.664L255.936 -41.664Q255.936 -35.232 252.72 -30.864Q249.504 -26.496 243.456 -25.344L243.456 -25.344Q242.688 -25.152 242.016 -25.152L242.016 -25.152L261.696 0L245.376 0 M284.16 -64.416L362.976 -64.416L362.976 -53.664L353.376 -53.664L353.376 0L339.648 0L339.648 -36.096Q339.072 -36.192 338.016 -36.192L338.016 -36.192Q333.408 -36.192 331.392 -33.888Q329.376 -31.584 329.376 -26.496L329.376 -26.496L329.376 -20.256L315.648 -20.256L315.648 -26.688Q315.648 -34.848 310.08 -34.848L310.08 -34.848Q303.744 -34.848 303.744 -25.344L303.744 -25.344Q303.744 -11.232 318.72 -11.232L318.72 -11.232Q320.64 -11.232 322.848 -11.52L322.848 -11.52L322.848 -0.48Q320.256 -0.096 317.184 -0.096L317.184 -0.096Q304.896 -0.096 297.6 -7.008Q290.304 -13.92 290.304 -25.536L290.304 -25.536Q290.304 -34.944 295.152 -40.512Q300 -46.08 308.64 -46.08L308.64 -46.08Q314.4 -46.08 318 -43.632Q321.6 -41.184 322.464 -37.536L322.464 -37.536Q325.152 -46.848 337.248 -46.848L337.248 -46.848Q338.112 -46.848 339.648 -46.656L339.648 -46.656L339.648 -53.664L284.16 -53.664L284.16 -64.416 M319.104 -76.8L319.104 -76.8L319.104 -88.128Q322.56 -88.8 326.4 -88.8L326.4 -88.8Q332.256 -88.704 336.288 -86.688Q340.32 -84.672 343.392 -79.968L343.392 -79.968L353.952 -63.744L339.456 -63.744L332.544 -73.824Q329.952 -77.76 325.248 -77.76L325.248 -77.76Q322.272 -77.76 319.104 -76.8 M357.216 -64.416L443.712 -64.416L443.712 -53.664L434.112 -53.664L434.112 0L420.48 0L420.48 -12.672Q416.64 -10.176 411.36 -10.176L411.36 -10.176Q403.776 -10.176 398.736 -15.216Q393.696 -20.256 393.696 -28.416L393.696 -28.416Q393.696 -36 399.072 -41.04Q404.448 -46.08 412.416 -46.08L412.416 -46.08Q413.76 -46.08 415.104 -45.888L415.104 -45.888L415.104 -36L414.144 -36Q410.592 -36 408.48 -33.696Q406.368 -31.392 406.368 -27.936L406.368 -27.936Q406.368 -24.384 408.432 -22.272Q410.496 -20.16 413.568 -20.16L413.568 -20.16Q420.48 -20.16 420.48 -27.168L420.48 -27.168L420.48 -53.664L393.024 -53.664L393.024 -41.76Q393.024 -35.232 389.712 -30.912Q386.4 -26.592 380.352 -25.152L380.352 -25.152L379.296 -24.96L398.784 0L382.464 0L363.456 -24.576L363.456 -35.136L370.752 -35.136Q379.584 -35.136 379.584 -42.528L379.584 -42.528L379.584 -53.664L357.216 -53.664L357.216 -64.416 M447.552 -53.664L437.952 -53.664L437.952 -64.416L470.688 -64.416L470.688 -53.664L461.088 -53.664L461.088 0L447.552 0L447.552 -53.664" fill="#ffffff"/></g>
</svg>
