<svg xmlns="http://www.w3.org/2000/svg" viewBox="0 0 516 369" role="img" aria-label="SahakarLekha stacked logo reversed">
<!-- SahakarLekha brand master v1.0 - Hind/Inter outlines baked in (no font dependency). navy #153f79 orange #f48525. Regenerate via brand-assets/logo/generator - do not hand-edit paths. -->
<g transform="translate(177.90 0) scale(0.3125)"><path d="M112.64 0 H399.36 A112.64 112.64 0 0 1 512 112.64 V399.36 A112.64 112.64 0 0 1 399.36 512 H112.64 A112.64 112.64 0 0 1 0 399.36 V112.64 A112.64 112.64 0 0 1 112.64 0Z" fill="#f48525"/><g transform="translate(94.68 414.72) scale(1.5769)"><path d="M90.6 -106.2L90.6 -106.2L141.3 -106.2L141.3 -167.7L96.9 -167.7L96.9 -133.5Q96.9 -117.6 90.6 -106.2M-9 -201.3L213.6 -201.3L213.6 -167.7L183.6 -167.7L183.6 0L141.3 0L141.3 -72.9L96.3 -72.9Q79.2 -72.9 58.8 -75.3L58.8 -75.3L114.9 0L63.9 0L6 -80.7L6 -110.1L27.3 -110.1Q54.9 -110.1 54.9 -133.2L54.9 -133.2L54.9 -167.7L-9 -167.7L-9 -201.3" fill="#ffffff"/></g></g><g transform="translate(24.00 282.80)"><path d="M28.992 -33.984L28.992 -33.984L45.216 -33.984L45.216 -53.664L31.008 -53.664L31.008 -42.72Q31.008 -37.632 28.992 -33.984M-2.88 -64.416L68.352 -64.416L68.352 -53.664L58.752 -53.664L58.752 0L45.216 0L45.216 -23.328L30.816 -23.328Q25.344 -23.328 18.816 -24.096L18.816 -24.096L36.768 0L20.448 0L1.92 -25.824L1.92 -35.232L8.736 -35.232Q17.568 -35.232 17.568 -42.624L17.568 -42.624L17.568 -53.664L-2.88 -53.664L-2.88 -64.416 M111.84 -53.664L111.84 -38.496L87.36 -38.496Q83.808 -38.496 83.808 -35.904L83.808 -35.904Q83.808 -33.408 86.496 -31.296L86.496 -31.296Q90.144 -32.064 94.368 -32.064L94.368 -32.064Q103.104 -32.064 108.576 -27.936Q114.048 -23.808 114.048 -17.568L114.048 -17.568Q114.048 -13.92 113.184 -12L113.184 -12L99.936 -12Q100.896 -13.824 100.896 -16.8L100.896 -16.8Q100.896 -18.624 98.976 -19.824Q97.056 -21.024 93.888 -21.024L93.888 -21.024Q88.992 -21.024 86.4 -19.2Q83.808 -17.376 83.808 -14.4L83.808 -14.4Q83.808 -6.624 96.864 -6.624L96.864 -6.624Q101.76 -6.624 110.112 -8.448L110.112 -8.448L110.112 2.592Q102.432 4.224 96.288 4.224L96.288 4.224Q83.616 4.224 76.896 -1.392Q70.176 -7.008 70.176 -14.496L70.176 -14.496Q70.176 -22.08 76.512 -26.976L76.512 -26.976Q69.792 -30.912 69.792 -37.536L69.792 -37.536Q69.792 -43.104 73.92 -46.08Q78.048 -49.056 84.576 -49.056L84.576 -49.056L98.4 -49.056L98.4 -53.664L62.592 -53.664L62.592 -64.416L121.248 -64.416L121.248 -53.664L111.84 -53.664 M198.912 -64.416L198.912 -53.664L163.968 -53.664L163.968 -43.2Q168.192 -46.944 174.144 -46.944L174.144 -46.944Q182.688 -46.944 187.92 -41.616Q193.152 -36.288 193.152 -28.032L193.152 -28.032Q193.152 -19.104 187.2 -13.776Q181.248 -8.448 171.936 -8.448L171.936 -8.448Q170.496 -8.448 169.728 -8.544L169.728 -8.544L169.728 -19.392Q170.304 -19.296 171.264 -19.296L171.264 -19.296Q175.2 -19.296 177.36 -21.696Q179.52 -24.096 179.52 -27.84L179.52 -27.84Q179.52 -31.296 177.504 -33.744Q175.488 -36.192 171.648 -36.192L171.648 -36.192Q168.288 -36.192 166.128 -33.744Q163.968 -31.296 163.968 -27.264L163.968 -27.264L163.968 0L150.336 0L150.336 -11.136Q146.208 -7.488 140.16 -7.488L140.16 -7.488Q131.616 -7.488 126.384 -12.816Q121.152 -18.144 121.152 -26.4L121.152 -26.4Q121.152 -35.328 127.104 -40.656Q133.056 -45.984 142.368 -45.984L142.368 -45.984Q143.712 -45.984 144.576 -45.888L144.576 -45.888L144.576 -35.04Q144 -35.136 143.04 -35.136L143.04 -35.136Q139.104 -35.136 136.944 -32.736Q134.784 -30.336 134.784 -26.592L134.784 -26.592Q134.784 -23.136 136.8 -20.688Q138.816 -18.24 142.656 -18.24L142.656 -18.24Q146.016 -18.24 148.176 -20.688Q150.336 -23.136 150.336 -27.168L150.336 -27.168L150.336 -53.664L115.488 -53.664L115.488 -64.416L198.912 -64.416 M202.752 -53.664L193.152 -53.664L193.152 -64.416L225.888 -64.416L225.888 -53.664L216.288 -53.664L216.288 0L202.752 0L202.752 -53.664 M245.376 0L226.368 -24.576L226.368 -35.136L233.664 -35.136Q242.496 -35.136 242.496 -42.432L242.496 -42.432L242.496 -53.664L220.128 -53.664L220.128 -64.416L265.92 -64.416L265.92 -53.664L255.936 -53.664L255.936 -41.664Q255.936 -35.232 252.72 -30.864Q249.504 -26.496 243.456 -25.344L243.456 -25.344Q242.688 -25.152 242.016 -25.152L242.016 -25.152L261.696 0L245.376 0 M284.16 -64.416L362.976 -64.416L362.976 -53.664L353.376 -53.664L353.376 0L339.648 0L339.648 -36.096Q339.072 -36.192 338.016 -36.192L338.016 -36.192Q333.408 -36.192 331.392 -33.888Q329.376 -31.584 329.376 -26.496L329.376 -26.496L329.376 -20.256L315.648 -20.256L315.648 -26.688Q315.648 -34.848 310.08 -34.848L310.08 -34.848Q303.744 -34.848 303.744 -25.344L303.744 -25.344Q303.744 -11.232 318.72 -11.232L318.72 -11.232Q320.64 -11.232 322.848 -11.52L322.848 -11.52L322.848 -0.48Q320.256 -0.096 317.184 -0.096L317.184 -0.096Q304.896 -0.096 297.6 -7.008Q290.304 -13.92 290.304 -25.536L290.304 -25.536Q290.304 -34.944 295.152 -40.512Q300 -46.08 308.64 -46.08L308.64 -46.08Q314.4 -46.08 318 -43.632Q321.6 -41.184 322.464 -37.536L322.464 -37.536Q325.152 -46.848 337.248 -46.848L337.248 -46.848Q338.112 -46.848 339.648 -46.656L339.648 -46.656L339.648 -53.664L284.16 -53.664L284.16 -64.416 M319.104 -76.8L319.104 -76.8L319.104 -88.128Q322.56 -88.8 326.4 -88.8L326.4 -88.8Q332.256 -88.704 336.288 -86.688Q340.32 -84.672 343.392 -79.968L343.392 -79.968L353.952 -63.744L339.456 -63.744L332.544 -73.824Q329.952 -77.76 325.248 -77.76L325.248 -77.76Q322.272 -77.76 319.104 -76.8 M357.216 -64.416L443.712 -64.416L443.712 -53.664L434.112 -53.664L434.112 0L420.48 0L420.48 -12.672Q416.64 -10.176 411.36 -10.176L411.36 -10.176Q403.776 -10.176 398.736 -15.216Q393.696 -20.256 393.696 -28.416L393.696 -28.416Q393.696 -36 399.072 -41.04Q404.448 -46.08 412.416 -46.08L412.416 -46.08Q413.76 -46.08 415.104 -45.888L415.104 -45.888L415.104 -36L414.144 -36Q410.592 -36 408.48 -33.696Q406.368 -31.392 406.368 -27.936L406.368 -27.936Q406.368 -24.384 408.432 -22.272Q410.496 -20.16 413.568 -20.16L413.568 -20.16Q420.48 -20.16 420.48 -27.168L420.48 -27.168L420.48 -53.664L393.024 -53.664L393.024 -41.76Q393.024 -35.232 389.712 -30.912Q386.4 -26.592 380.352 -25.152L380.352 -25.152L379.296 -24.96L398.784 0L382.464 0L363.456 -24.576L363.456 -35.136L370.752 -35.136Q379.584 -35.136 379.584 -42.528L379.584 -42.528L379.584 -53.664L357.216 -53.664L357.216 -64.416 M447.552 -53.664L437.952 -53.664L437.952 -64.416L470.688 -64.416L470.688 -53.664L461.088 -53.664L461.088 0L447.552 0L447.552 -53.664" fill="#ffffff"/></g><g transform="translate(165.39 354.57)"><path d="M8.544 0.292L8.544 0.292Q6.348 0.292 4.729 -0.394Q3.11 -1.079 2.196 -2.387Q1.282 -3.694 1.206 -5.561L1.206 -5.561L4.545 -5.561Q4.634 -4.57 5.167 -3.91Q5.7 -3.25 6.576 -2.926Q7.452 -2.603 8.519 -2.603L8.519 -2.603Q9.636 -2.603 10.493 -2.945Q11.35 -3.288 11.832 -3.904Q12.314 -4.52 12.314 -5.332L12.314 -5.332Q12.314 -6.068 11.889 -6.551Q11.464 -7.033 10.696 -7.37Q9.928 -7.706 8.899 -7.96L8.899 -7.96L6.754 -8.519Q4.38 -9.128 3.053 -10.359Q1.727 -11.591 1.727 -13.597L1.727 -13.597Q1.727 -15.272 2.628 -16.529Q3.529 -17.786 5.091 -18.478Q6.652 -19.17 8.633 -19.17L8.633 -19.17Q10.651 -19.17 12.175 -18.472Q13.698 -17.773 14.555 -16.542Q15.412 -15.311 15.45 -13.736L15.45 -13.736L12.162 -13.736Q12.035 -14.955 11.077 -15.622Q10.118 -16.288 8.582 -16.288L8.582 -16.288Q7.516 -16.288 6.748 -15.964Q5.979 -15.641 5.567 -15.082Q5.154 -14.523 5.154 -13.8L5.154 -13.8Q5.154 -13.013 5.643 -12.505Q6.132 -11.997 6.875 -11.692Q7.617 -11.388 8.379 -11.197L8.379 -11.197L10.144 -10.74Q11.197 -10.486 12.188 -10.067Q13.178 -9.648 13.971 -9.007Q14.765 -8.366 15.234 -7.452Q15.704 -6.538 15.704 -5.307L15.704 -5.307Q15.704 -3.644 14.854 -2.38Q14.003 -1.117 12.403 -0.413Q10.804 0.292 8.544 0.292 M22.623 0.292L22.623 0.292Q21.277 0.292 20.198 -0.197Q19.119 -0.686 18.497 -1.638Q17.875 -2.59 17.875 -3.986L17.875 -3.986Q17.875 -5.192 18.326 -5.979Q18.776 -6.767 19.544 -7.236Q20.313 -7.706 21.277 -7.947Q22.242 -8.188 23.283 -8.29L23.283 -8.29Q24.515 -8.43 25.289 -8.531Q26.063 -8.633 26.425 -8.861Q26.787 -9.09 26.787 -9.572L26.787 -9.572L26.787 -9.636Q26.787 -10.334 26.508 -10.823Q26.229 -11.312 25.676 -11.572Q25.124 -11.832 24.312 -11.832L24.312 -11.832Q23.486 -11.832 22.883 -11.578Q22.28 -11.324 21.899 -10.918Q21.519 -10.512 21.341 -10.042L21.341 -10.042L18.281 -10.664Q18.7 -11.921 19.576 -12.74Q20.452 -13.559 21.665 -13.965Q22.877 -14.371 24.299 -14.371L24.299 -14.371Q25.302 -14.371 26.324 -14.136Q27.346 -13.901 28.196 -13.343Q29.047 -12.784 29.567 -11.845Q30.088 -10.905 30.088 -9.483L30.088 -9.483L30.088 0L26.927 0L26.927 -1.955L26.8 -1.955Q26.482 -1.358 25.93 -0.844Q25.378 -0.33 24.559 -0.019Q23.74 0.292 22.623 0.292M23.474 -2.158L23.474 -2.158Q24.502 -2.158 25.245 -2.564Q25.987 -2.971 26.4 -3.637Q26.813 -4.304 26.813 -5.091L26.813 -5.091L26.813 -6.767Q26.647 -6.64 26.26 -6.525Q25.873 -6.411 25.397 -6.322Q24.921 -6.233 24.458 -6.17Q23.994 -6.106 23.677 -6.068L23.677 -6.068Q22.94 -5.967 22.344 -5.738Q21.747 -5.51 21.411 -5.097Q21.074 -4.685 21.074 -4.024L21.074 -4.024Q21.074 -3.415 21.385 -3.002Q21.696 -2.59 22.236 -2.374Q22.775 -2.158 23.474 -2.158 M36.893 -8.315L36.893 -8.315L36.893 0L33.592 0L33.592 -18.916L36.842 -18.916L36.842 -10.689L36.499 -10.689Q37.096 -12.53 38.251 -13.451Q39.406 -14.371 41.146 -14.371L41.146 -14.371Q42.605 -14.371 43.704 -13.749Q44.802 -13.127 45.405 -11.934Q46.008 -10.74 46.008 -9.026L46.008 -9.026L46.008 0L42.694 0L42.694 -8.519Q42.694 -9.94 41.958 -10.753Q41.222 -11.565 39.927 -11.565L39.927 -11.565Q39.051 -11.565 38.365 -11.185Q37.68 -10.804 37.286 -10.074Q36.893 -9.344 36.893 -8.315 M53.473 0.292L53.473 0.292Q52.127 0.292 51.048 -0.197Q49.969 -0.686 49.347 -1.638Q48.725 -2.59 48.725 -3.986L48.725 -3.986Q48.725 -5.192 49.175 -5.979Q49.626 -6.767 50.394 -7.236Q51.162 -7.706 52.127 -7.947Q53.092 -8.188 54.133 -8.29L54.133 -8.29Q55.364 -8.43 56.139 -8.531Q56.913 -8.633 57.275 -8.861Q57.637 -9.09 57.637 -9.572L57.637 -9.572L57.637 -9.636Q57.637 -10.334 57.357 -10.823Q57.078 -11.312 56.526 -11.572Q55.974 -11.832 55.161 -11.832L55.161 -11.832Q54.336 -11.832 53.733 -11.578Q53.13 -11.324 52.749 -10.918Q52.368 -10.512 52.19 -10.042L52.19 -10.042L49.131 -10.664Q49.55 -11.921 50.426 -12.74Q51.302 -13.559 52.514 -13.965Q53.727 -14.371 55.148 -14.371L55.148 -14.371Q56.151 -14.371 57.173 -14.136Q58.195 -13.901 59.046 -13.343Q59.896 -12.784 60.417 -11.845Q60.938 -10.905 60.938 -9.483L60.938 -9.483L60.938 0L57.776 0L57.776 -1.955L57.649 -1.955Q57.332 -1.358 56.78 -0.844Q56.228 -0.33 55.409 -0.019Q54.59 0.292 53.473 0.292M54.323 -2.158L54.323 -2.158Q55.352 -2.158 56.094 -2.564Q56.837 -2.971 57.25 -3.637Q57.662 -4.304 57.662 -5.091L57.662 -5.091L57.662 -6.767Q57.497 -6.64 57.11 -6.525Q56.723 -6.411 56.247 -6.322Q55.771 -6.233 55.307 -6.17Q54.844 -6.106 54.526 -6.068L54.526 -6.068Q53.79 -5.967 53.193 -5.738Q52.597 -5.51 52.26 -5.097Q51.924 -4.685 51.924 -4.024L51.924 -4.024Q51.924 -3.415 52.235 -3.002Q52.546 -2.59 53.085 -2.374Q53.625 -2.158 54.323 -2.158 M70.015 -7.198L67.463 -4.469L67.463 -8.468L67.983 -8.468L73.1 -14.193L76.972 -14.193L70.7 -7.198L70.015 -7.198M67.742 0L64.441 0L64.441 -18.916L67.742 -18.916L67.742 0M77.302 0L73.341 0L68.694 -6.462L70.929 -8.798L77.302 0 M83.205 0.292L83.205 0.292Q81.859 0.292 80.78 -0.197Q79.701 -0.686 79.079 -1.638Q78.457 -2.59 78.457 -3.986L78.457 -3.986Q78.457 -5.192 78.908 -5.979Q79.358 -6.767 80.126 -7.236Q80.895 -7.706 81.859 -7.947Q82.824 -8.188 83.865 -8.29L83.865 -8.29Q85.097 -8.43 85.871 -8.531Q86.646 -8.633 87.007 -8.861Q87.369 -9.09 87.369 -9.572L87.369 -9.572L87.369 -9.636Q87.369 -10.334 87.09 -10.823Q86.811 -11.312 86.258 -11.572Q85.706 -11.832 84.894 -11.832L84.894 -11.832Q84.068 -11.832 83.465 -11.578Q82.862 -11.324 82.481 -10.918Q82.101 -10.512 81.923 -10.042L81.923 -10.042L78.863 -10.664Q79.282 -11.921 80.158 -12.74Q81.034 -13.559 82.247 -13.965Q83.459 -14.371 84.881 -14.371L84.881 -14.371Q85.884 -14.371 86.906 -14.136Q87.928 -13.901 88.778 -13.343Q89.629 -12.784 90.149 -11.845Q90.67 -10.905 90.67 -9.483L90.67 -9.483L90.67 0L87.509 0L87.509 -1.955L87.382 -1.955Q87.064 -1.358 86.512 -0.844Q85.96 -0.33 85.141 -0.019Q84.322 0.292 83.205 0.292M84.056 -2.158L84.056 -2.158Q85.084 -2.158 85.827 -2.564Q86.569 -2.971 86.982 -3.637Q87.395 -4.304 87.395 -5.091L87.395 -5.091L87.395 -6.767Q87.229 -6.64 86.842 -6.525Q86.455 -6.411 85.979 -6.322Q85.503 -6.233 85.04 -6.17Q84.576 -6.106 84.259 -6.068L84.259 -6.068Q83.522 -5.967 82.926 -5.738Q82.329 -5.51 81.993 -5.097Q81.656 -4.685 81.656 -4.024L81.656 -4.024Q81.656 -3.415 81.967 -3.002Q82.278 -2.59 82.818 -2.374Q83.357 -2.158 84.056 -2.158 M97.475 0L94.174 0L94.174 -14.193L97.373 -14.193L97.373 -11.819L97.525 -11.819Q97.906 -13.051 98.858 -13.717Q99.811 -14.384 101.029 -14.384L101.029 -14.384Q101.309 -14.384 101.651 -14.358Q101.994 -14.333 102.235 -14.295L102.235 -14.295L102.235 -11.261Q102.032 -11.324 101.575 -11.375Q101.118 -11.426 100.674 -11.426L100.674 -11.426Q99.76 -11.426 99.03 -11.032Q98.3 -10.639 97.887 -9.947Q97.475 -9.255 97.475 -8.354L97.475 -8.354L97.475 0 M122.941 0L111.198 0L111.198 -18.916L114.588 -18.916L114.588 -2.856L122.941 -2.856L122.941 0 M132.019 0.292L132.019 0.292Q129.873 0.292 128.331 -0.609Q126.788 -1.511 125.957 -3.148Q125.125 -4.786 125.125 -7.008L125.125 -7.008Q125.125 -9.204 125.944 -10.854Q126.763 -12.505 128.267 -13.438Q129.771 -14.371 131.803 -14.371L131.803 -14.371Q133.098 -14.371 134.272 -13.952Q135.446 -13.533 136.354 -12.657Q137.262 -11.781 137.776 -10.429Q138.29 -9.077 138.29 -7.211L138.29 -7.211L138.29 -6.17L126.687 -6.17L126.687 -8.417L136.652 -8.417L135.104 -7.757Q135.104 -8.95 134.735 -9.858Q134.367 -10.766 133.637 -11.273Q132.907 -11.781 131.815 -11.781L131.815 -11.781Q130.724 -11.781 129.962 -11.267Q129.2 -10.753 128.8 -9.896Q128.4 -9.039 128.4 -7.985L128.4 -7.985L128.4 -6.437Q128.4 -5.091 128.857 -4.164Q129.314 -3.237 130.14 -2.768Q130.965 -2.298 132.057 -2.298L132.057 -2.298Q132.78 -2.298 133.371 -2.507Q133.961 -2.717 134.393 -3.129Q134.824 -3.542 135.04 -4.139L135.04 -4.139L138.074 -3.517Q137.731 -2.374 136.906 -1.517Q136.081 -0.66 134.843 -0.184Q133.605 0.292 132.019 0.292 M146.694 -7.198L144.143 -4.469L144.143 -8.468L144.663 -8.468L149.779 -14.193L153.651 -14.193L147.38 -7.198L146.694 -7.198M144.422 0L141.121 0L141.121 -18.916L144.422 -18.916L144.422 0M153.981 0L150.021 0L145.374 -6.462L147.608 -8.798L153.981 0 M159.225 -8.315L159.225 -8.315L159.225 0L155.924 0L155.924 -18.916L159.174 -18.916L159.174 -10.689L158.831 -10.689Q159.428 -12.53 160.583 -13.451Q161.738 -14.371 163.478 -14.371L163.478 -14.371Q164.938 -14.371 166.036 -13.749Q167.134 -13.127 167.737 -11.934Q168.34 -10.74 168.34 -9.026L168.34 -9.026L168.34 0L165.026 0L165.026 -8.519Q165.026 -9.94 164.29 -10.753Q163.554 -11.565 162.259 -11.565L162.259 -11.565Q161.383 -11.565 160.697 -11.185Q160.012 -10.804 159.618 -10.074Q159.225 -9.344 159.225 -8.315 M175.805 0.292L175.805 0.292Q174.459 0.292 173.38 -0.197Q172.301 -0.686 171.679 -1.638Q171.057 -2.59 171.057 -3.986L171.057 -3.986Q171.057 -5.192 171.507 -5.979Q171.958 -6.767 172.726 -7.236Q173.494 -7.706 174.459 -7.947Q175.424 -8.188 176.465 -8.29L176.465 -8.29Q177.696 -8.43 178.471 -8.531Q179.245 -8.633 179.607 -8.861Q179.969 -9.09 179.969 -9.572L179.969 -9.572L179.969 -9.636Q179.969 -10.334 179.689 -10.823Q179.41 -11.312 178.858 -11.572Q178.306 -11.832 177.493 -11.832L177.493 -11.832Q176.668 -11.832 176.065 -11.578Q175.462 -11.324 175.081 -10.918Q174.7 -10.512 174.522 -10.042L174.522 -10.042L171.463 -10.664Q171.882 -11.921 172.758 -12.74Q173.634 -13.559 174.846 -13.965Q176.059 -14.371 177.48 -14.371L177.48 -14.371Q178.483 -14.371 179.505 -14.136Q180.527 -13.901 181.378 -13.343Q182.229 -12.784 182.749 -11.845Q183.27 -10.905 183.27 -9.483L183.27 -9.483L183.27 0L180.108 0L180.108 -1.955L179.981 -1.955Q179.664 -1.358 179.112 -0.844Q178.56 -0.33 177.741 -0.019Q176.922 0.292 175.805 0.292M176.655 -2.158L176.655 -2.158Q177.684 -2.158 178.426 -2.564Q179.169 -2.971 179.582 -3.637Q179.994 -4.304 179.994 -5.091L179.994 -5.091L179.994 -6.767Q179.829 -6.64 179.442 -6.525Q179.055 -6.411 178.579 -6.322Q178.103 -6.233 177.639 -6.17Q177.176 -6.106 176.858 -6.068L176.858 -6.068Q176.122 -5.967 175.525 -5.738Q174.929 -5.51 174.592 -5.097Q174.256 -4.685 174.256 -4.024L174.256 -4.024Q174.256 -3.415 174.567 -3.002Q174.878 -2.59 175.417 -2.374Q175.957 -2.158 176.655 -2.158" fill="#f48525"/></g>
</svg>
